<?xml version="1.0" encoding="UTF-8"?>
<svg id="Layer_2" data-name="Layer 2" xmlns="http://www.w3.org/2000/svg" viewBox="0 0 224.81 225.67">
  <defs>
    <style>
      .cls-1 {
        fill: #bf1e2e;
      }

      .cls-2 {
        fill: none;
      }
    </style>
  </defs>
  <g id="_0" data-name="0">
    <g>
      <path class="cls-1" d="m120.45,110.86c.23.91.31,1.88.2,2.87-.49,4.54-4.58,7.84-9.14,7.35-4.92-.53-8.37-5.29-7.15-10.25.93-3.8,4.55-6.48,8.45-6.28.8.05,1.56.19,2.28.44.2.06.39.14.58.22,2.2.94,3.87,2.79,4.6,5.04.07.19.13.4.18.61Z"/>
      <path class="cls-1" d="m153.68,115.45c.02-.33.03-.65.05-.98,0-.03,0-.08,0-.12.01-.32.02-.64.02-.96.01-.69,0-1.37-.02-2.05-.02-.34-.03-.67-.06-1.02-.03-.64-.09-1.28-.17-1.92-.11-1.06-.26-2.11-.45-3.15-.12-.64-.25-1.27-.4-1.91-.07-.32-.16-.64-.24-.96-.34-1.3-.73-2.57-1.2-3.8-.11-.32-.23-.63-.35-.94-.12-.3-.24-.61-.37-.92-.14-.29-.27-.6-.4-.9-.27-.6-.56-1.21-.87-1.79-.45-.88-.94-1.75-1.45-2.6-.17-.29-.35-.57-.52-.84-.17-.29-.36-.56-.54-.84-.18-.28-.37-.54-.56-.81-.19-.28-.38-.55-.59-.81-1.08-1.47-2.26-2.85-3.53-4.15-.19-.2-.38-.38-.58-.57-.26-.26-.52-.51-.79-.76-.17-.16-.34-.32-.52-.48-.17-.15-.34-.31-.52-.47-.2-.17-.4-.34-.6-.5-.27-.24-.54-.47-.83-.68-.1-.08-.18-.16-.26-.22-1.32-1.04-2.71-2-4.16-2.87-.04-.04-.09-.06-.14-.08-.43-.26-.86-.52-1.31-.75-.44-.25-.88-.48-1.34-.7-.03-.01-.07-.03-.1-.04-.42-.22-.84-.43-1.28-.63-.44-.19-.88-.39-1.33-.57-.03-.02-.06-.03-.09-.03-.48-.21-.95-.39-1.44-.57-.46-.16-.93-.34-1.42-.49l-.04-.02c-.5-.17-1-.33-1.5-.45-.49-.15-1.01-.29-1.52-.42-23.12-5.68-46.48,9.28-50.64,33.15-3.5,20.13,8.59,40.11,28.05,46.35,23.06,7.4,47.16-6.35,52.85-29.46.17-.69.32-1.4.46-2.09.07-.34.13-.69.18-1.05.07-.33.11-.68.17-1.03.14-1.04.25-2.09.32-3.11Zm-17.64-5.16c-.41.4-.87.69-1.34.9-1.18.52-2.3,1.33-3.18,2.38-.88,1.03-1.5,2.27-1.81,3.52-.3,1.25-.33,2.64-.04,3.96.29,1.33.91,2.56,1.71,3.57.45.55.79,1.27.95,2.03.15.79.1,1.62-.16,2.37-.13.38-.28.73-.48,1.05-.2.31-.43.58-.69.83-.52.5-1.19.93-1.96,1.14-.7.21-1.47.24-2.19.1-.72-.14-1.36-.45-1.89-.83-1.03-.76-2.3-1.32-3.64-1.57-1.33-.24-2.72-.14-3.95.21-1.24.35-2.46,1.03-3.45,1.94-1.01.91-1.77,2.07-2.25,3.27-.23.6-.62,1.22-1.15,1.7-.53.5-1.2.89-1.9,1.1-.77.23-1.55.22-2.26.09-.34-.08-.68-.19-1.03-.35-.33-.15-.66-.35-.98-.62-.6-.49-1.09-1.18-1.39-1.91-.28-.73-.37-1.51-.29-2.22.15-1.28,0-2.66-.47-3.94-.45-1.27-1.23-2.44-2.16-3.32-.93-.9-2.11-1.63-3.4-2.03-1.31-.41-2.69-.5-3.96-.3-.52.08-1.06.07-1.62-.04s-1.12-.33-1.61-.64c-.5-.32-.92-.74-1.26-1.19-.33-.46-.57-.96-.72-1.45-.13-.5-.2-1.05-.17-1.62.05-.57.18-1.15.43-1.67.27-.55.61-1.03,1.03-1.42.4-.38.88-.68,1.34-.9,1.19-.51,2.31-1.32,3.17-2.36.88-1.04,1.5-2.29,1.81-3.53.31-1.25.33-2.64.04-3.96-.29-1.33-.9-2.57-1.71-3.58-.32-.4-.6-.88-.78-1.42-.19-.54-.27-1.13-.25-1.72.03-.59.17-1.16.4-1.68.24-.52.55-.98.9-1.35.37-.36.81-.7,1.32-.94.51-.25,1.08-.43,1.66-.47.59-.05,1.18.02,1.73.18.54.15,1.03.41,1.45.72,1.03.76,2.3,1.33,3.64,1.57,1.33.23,2.72.14,3.95-.21s2.46-1.02,3.45-1.94c1.01-.92,1.78-2.07,2.25-3.27.19-.48.46-.97.84-1.39.37-.42.83-.8,1.35-1.07.52-.27,1.1-.44,1.66-.49s1.11-.02,1.61.1c.5.13,1,.36,1.48.66.47.32.9.73,1.24,1.22.33.48.57,1.02.7,1.57.14.55.16,1.11.1,1.63-.02.25-.04.51-.05.77-.02.87.09,1.74.35,2.6.06.19.11.38.18.56.45,1.27,1.23,2.44,2.16,3.33.93.89,2.11,1.61,3.4,2.02,1.3.41,2.69.49,3.96.3.51-.07,1.07-.08,1.62.04.56.12,1.12.32,1.61.64.5.31.93.73,1.26,1.19.33.45.57.95.72,1.45.14.49.2,1.04.17,1.62-.02.33-.09.64-.17.97-.06.24-.15.47-.26.71-.26.53-.6,1-1.02,1.39h0Z"/>
      <line class="cls-2" x1="120.45" y1="110.86" x2="112.4" y2="112.84"/>
      <line class="cls-2" x1="115.09" y1="104.99" x2="112.4" y2="112.84"/>
      <g id="SvgjsG1356">
        <path class="cls-1" d="m224.81,127.09c-.31,2.42-.69,4.82-1.15,7.21l-1.56.29-1.53.22-1.39.15-1.19.07-1,.02-.83-.03-.89-.06-.22-.05-.71-.25-.67-.21-.65-.18-.6-.14-.56-.11-.53-.07-.49-.05h-.43s-.41,0-.41,0l-.35.04-.31.06-.27.08-.22.1-.18.12-.12.13-.08.15-.02.08-.36,1.5-.57,2.24-.63,2.23-.44,1.47-.03.07v.17l.04.18.09.18.14.2.19.2.24.21.29.2.34.21.39.21.44.2.49.2.55.19.59.18.64.18.69.16.75.14.21.07.8.39.72.4.86.53.99.67,1.13.81,1.21.96,1.2,1.03c-.8,2.3-1.68,4.57-2.63,6.82l-1.58-.04-1.55-.1-1.38-.15-1.18-.18-.98-.18-.8-.19-.86-.25-.21-.09-.64-.39-.62-.35-.59-.3-.56-.27-.53-.22-.5-.18-.47-.15-.42-.11-.4-.06-.35-.05h-.32l-.28.02-.23.06-.19.08-.16.1-.11.13-.04.07-.66,1.39-1.03,2.07-1.08,2.04-.74,1.35-.04.07-.04.16v.18l.05.2.1.23.14.23.19.26.24.27.29.28.34.29.39.29.43.3.49.3.55.3.59.3.65.3.69.3.2.12.69.55.63.55.73.68.84.86.92,1.03.99,1.2.95,1.26c-1.26,2.09-2.59,4.12-3.98,6.12l-1.54-.36-1.5-.42-1.31-.43-1.13-.42-.92-.39-.74-.36-.79-.42-.19-.14-.55-.52-.53-.47-.52-.42-.49-.38-.48-.32-.44-.29-.42-.23-.4-.19-.37-.16-.34-.11-.31-.07-.28-.03h-.24l-.2.04-.18.06-.13.11-.06.06-.93,1.23-1.43,1.81-1.48,1.77-1.01,1.16-.05.06-.07.16-.04.18v.21l.06.24.08.26.14.3.18.3.22.33.28.35.31.37.37.38.42.4.47.41.52.42.56.42.63.43.17.16.57.67.5.67.56.82.65,1.01.69,1.2.71,1.38.67,1.43c-1.66,1.77-3.39,3.49-5.17,5.15l-1.43-.67-1.37-.73-1.2-.69-1.01-.65-.82-.57-.66-.5-.68-.57-.16-.17-.42-.63-.42-.56-.42-.53-.4-.46-.4-.42-.38-.37-.37-.31-.35-.28-.33-.22-.3-.18-.29-.13-.27-.09-.23-.06h-.21l-.18.03-.15.07-.06.06-1.16,1-1.78,1.48-1.81,1.42-1.23.93-.06.05-.1.13-.07.18-.04.2v.25l.03.28.07.3.11.34.15.37.19.4.24.42.28.45.32.47.37.5.42.52.46.54.52.55.14.18.42.79.35.75.39.92.42,1.13.42,1.32.42,1.49.36,1.54c-2,1.39-4.05,2.72-6.12,3.97l-1.27-.97-1.19-.99-1.03-.93-.85-.83-.68-.74-.55-.62-.55-.71-.11-.19-.3-.7-.3-.64-.3-.6-.3-.54-.3-.5-.3-.43-.29-.39-.29-.34-.28-.3-.27-.24-.25-.18-.24-.15-.22-.09-.2-.06h-.18l-.17.04-.07.04-1.34.74-2.05,1.07-2.07,1.02-1.39.66-.07.04-.13.1-.1.16-.08.19-.06.23-.02.28v.32l.04.35.07.4.1.43.15.46.18.5.22.53.26.56.3.59.34.62.4.65.09.21.24.86.18.8.19.98.17,1.18.15,1.39.09,1.54.04,1.59c-2.24.94-4.52,1.81-6.83,2.61l-1.03-1.21-.96-1.21-.81-1.13-.66-1-.52-.86-.4-.72-.39-.8-.07-.22-.14-.74-.16-.69-.17-.65-.18-.59-.19-.55-.19-.49-.2-.44-.21-.39-.21-.34-.2-.29-.21-.24-.2-.19-.19-.14-.19-.09-.18-.05h-.17s-.08.03-.08.03l-1.47.44-2.23.62-2.24.56-1.5.35-.07.02-.15.08-.14.12-.12.18-.1.22-.07.27-.06.31-.04.35-.02.41.02.43.05.49.06.53.11.56.14.6.17.65.21.67.25.71.05.23.06.89.02.82-.03,1.01-.07,1.19-.15,1.38-.23,1.53-.3,1.56c-2.39.45-4.79.83-7.21,1.13l-.76-1.39-.68-1.39-.56-1.27-.43-1.11-.33-.95-.23-.79-.21-.87-.03-.23.02-.75v-.71s-.04-.67-.04-.67l-.06-.62-.07-.56-.09-.53-.1-.47-.12-.43-.14-.37-.15-.33-.15-.28-.17-.23-.16-.18-.17-.13-.17-.08-.17-.03h-.08s-1.53.13-1.53.13l-2.3.15-2.31.09-1.54.03h-.07l-.17.05-.16.09-.15.15-.15.19-.14.25-.12.29-.11.34-.1.39-.07.43-.06.49-.04.53v.57s0,.62,0,.62l.04.67.06.71.09.75v.23l-.13.88-.16.81-.23.97-.32,1.15-.42,1.32-.55,1.45-.61,1.46c-2.44-.06-4.87-.18-7.3-.4l-.45-1.51-.38-1.51-.29-1.36-.19-1.18-.12-.99-.07-.82-.03-.9.03-.22.18-.74.14-.69.11-.66.07-.62.05-.57.02-.53v-.49l-.04-.44-.06-.4-.07-.35-.08-.3-.11-.26-.13-.21-.13-.16-.15-.11-.16-.06-.08-.02-1.52-.19-2.28-.33-2.27-.4-1.51-.29-.07-.02h-.18s-.17.07-.17.07l-.18.11-.18.16-.18.21-.18.26-.18.31-.18.36-.17.41-.16.46-.15.51-.13.56-.12.6-.1.66-.08.71-.06.75-.06.23-.3.83-.31.76-.43.91-.55,1.06-.69,1.2-.83,1.31-.91,1.29c-2.37-.55-4.72-1.19-7.05-1.9l-.13-1.58-.06-1.54v-1.39l.06-1.2.08-1,.1-.81.17-.88.06-.22.32-.68.29-.65.24-.62.2-.59.17-.55.13-.52.09-.48.06-.43.03-.4v-.36l-.03-.31-.06-.28-.07-.23-.1-.18-.12-.14-.14-.09-.07-.03-1.45-.51-2.16-.81-2.14-.86-1.42-.59-.07-.03-.17-.03-.18.02-.19.07-.21.12-.22.17-.23.21-.24.27-.25.31-.25.37-.25.42-.25.47-.25.52-.24.57-.24.62-.23.67-.21.72-.1.21-.47.75-.47.68-.6.79-.77.92-.93,1.03-1.08,1.11-1.15,1.08c-2.21-1.03-4.37-2.14-6.5-3.33l.2-1.57.27-1.52.29-1.36.3-1.16.29-.95.28-.79.33-.82.12-.2.45-.59.42-.58.37-.55.31-.53.28-.51.23-.48.19-.44.15-.42.12-.39.07-.35.04-.31v-.28s-.02-.24-.02-.24l-.06-.2-.08-.16-.12-.12-.06-.05-1.31-.8-1.95-1.24-1.92-1.28-1.27-.88-.06-.05-.16-.06-.18-.02-.2.03-.24.07-.25.12-.27.16-.3.21-.3.26-.32.3-.33.36-.34.41-.34.45-.36.51-.36.55-.36.61-.37.67-.14.18-.61.64-.61.56-.76.66-.93.74-1.13.81-1.29.86-1.36.82c-1.93-1.48-3.82-3.01-5.66-4.61l.53-1.49.57-1.44.57-1.27.53-1.07.49-.88.42-.7.51-.74.15-.18.57-.49.53-.48.47-.46.42-.45.37-.43.33-.42.28-.4.24-.37.18-.35.15-.33.1-.3.06-.28.03-.24-.02-.21-.06-.18-.08-.14-.06-.06-1.13-1.05-1.64-1.63-1.61-1.65-1.05-1.12-.06-.06-.15-.09-.18-.06-.21-.02-.24.03-.27.06-.3.1-.32.14-.35.19-.38.23-.4.28-.42.33-.43.37-.45.42-.47.47-.48.52-.49.57-.18.15-.74.5-.7.42-.88.49-1.08.53-1.27.56-1.44.56-1.5.53c-1.59-1.85-3.11-3.74-4.58-5.68l.82-1.36.86-1.28.82-1.13.75-.93.66-.76.56-.6.65-.61.18-.14.66-.36.62-.36.55-.36.51-.35.46-.35.41-.34.35-.33.31-.31.26-.3.21-.3.16-.27.12-.25.07-.23.03-.21v-.18s-.07-.16-.07-.16l-.04-.06-.88-1.27-1.27-1.93-1.24-1.95-.79-1.32-.05-.06-.12-.12-.17-.08-.2-.06-.24-.03h-.28s-.31.05-.31.05l-.35.07-.39.11-.42.15-.44.19-.48.23-.51.28-.53.31-.55.36-.58.42-.6.45-.2.11-.82.33-.79.28-.95.29-1.16.3-1.36.29-1.52.26-1.58.19c-1.16-2.13-2.27-4.3-3.3-6.51l1.09-1.15,1.11-1.08,1.03-.93.92-.76.79-.6.68-.47.76-.47.2-.09.73-.22.67-.22.62-.23.57-.24.52-.25.47-.25.42-.25.37-.25.31-.24.27-.24.21-.23.18-.22.12-.21.06-.19.03-.18-.03-.17-.03-.07-.59-1.42-.85-2.14-.79-2.17-.51-1.45-.03-.08-.09-.14-.14-.12-.18-.09-.23-.08-.28-.06-.31-.03h-.36l-.4.03-.43.06-.48.09-.52.13-.55.16-.58.2-.62.24-.66.28-.68.32-.21.07-.88.15-.82.1-1,.08-1.19.05h-1.39l-1.55-.06-1.58-.13c-.7-2.34-1.33-4.68-1.88-7.06l1.3-.91,1.31-.82,1.2-.69,1.06-.55.91-.42.77-.31.83-.3.23-.05.75-.06.7-.08.67-.1.6-.12.56-.13.51-.15.46-.16.42-.17.36-.17.3-.18.27-.18.2-.18.17-.18.11-.18.06-.18.02-.17-.02-.08-.29-1.51-.38-2.28-.33-2.28-.18-1.52-.02-.08-.06-.16-.11-.15-.16-.14-.2-.12-.26-.11-.3-.09-.35-.07-.4-.06-.44-.04h-1.02s-.57.06-.57.06l-.62.07-.66.11-.69.14-.73.18-.23.02-.89-.04-.83-.06-.99-.13-1.18-.2-1.36-.29-1.5-.39-1.52-.46c-.2-2.42-.32-4.86-.37-7.29l1.46-.61,1.46-.54,1.32-.42,1.15-.32.98-.22.81-.16.88-.12h.23l.75.1.71.06.66.04.63.02.57-.02.53-.04.48-.06.44-.07.39-.1.34-.1.29-.13.25-.13.19-.15.15-.15.09-.17.05-.16v-.08s.04-1.53.04-1.53l.1-2.31.15-2.3.14-1.53v-.08l-.03-.17-.07-.17-.13-.17-.18-.17-.22-.16-.28-.16-.33-.15-.38-.13-.42-.13-.47-.11-.52-.09-.57-.07-.62-.06-.67-.03h-.71s-.75,0-.75,0l-.23-.03-.86-.21-.79-.24-.94-.33-1.12-.43-1.27-.57-1.39-.68-1.39-.77c.3-2.42.69-4.82,1.15-7.21l1.55-.29,1.53-.22,1.39-.15,1.19-.06,1-.02.83.02.89.06.22.05.71.25.68.21.64.18.6.14.56.11.53.07.49.05h.44s.4,0,.4,0l.36-.04.3-.06.27-.08.22-.1.18-.12.13-.13.07-.15.03-.08.35-1.5.57-2.24.63-2.22.45-1.48.02-.07v-.17s-.04-.18-.04-.18l-.09-.18-.14-.2-.19-.2-.23-.2-.3-.21-.34-.21-.39-.21-.44-.2-.49-.2-.54-.18-.6-.18-.64-.18-.69-.16-.74-.14-.22-.07-.79-.39-.73-.4-.85-.52-1-.67-1.13-.82-1.21-.96-1.2-1.03c.8-2.3,1.68-4.57,2.63-6.82l1.58.05,1.55.1,1.38.15,1.18.18.99.18.8.19.85.25.21.09.65.4.62.34.58.3.56.27.54.22.49.18.47.14.42.11.4.07.36.04h.31l.28-.02.24-.06.19-.07.15-.11.11-.13.04-.06.66-1.39,1.03-2.07,1.08-2.04.74-1.35.04-.07.05-.16v-.18s-.06-.2-.06-.2l-.09-.22-.15-.24-.19-.26-.24-.27-.29-.28-.33-.29-.39-.29-.44-.3-.49-.3-.55-.3-.59-.3-.65-.3-.69-.3-.19-.12-.7-.55-.63-.54-.73-.69-.83-.85-.93-1.03-.98-1.2-.96-1.26c1.27-2.09,2.6-4.12,3.99-6.12l1.54.37,1.49.42,1.32.43,1.12.42.92.4.75.35.78.42.19.14.55.52.54.47.51.42.5.38.47.32.45.29.42.24.4.19.37.15.34.11.3.07.28.04h.24s.21-.05.21-.05l.17-.06.13-.1.06-.06.93-1.23,1.43-1.8,1.48-1.78,1.01-1.15.06-.06.07-.15.03-.18v-.21l-.05-.24-.09-.26-.14-.29-.18-.31-.22-.33-.28-.35-.31-.36-.37-.39-.42-.4-.47-.41-.52-.42-.56-.42-.62-.42-.18-.16-.56-.68-.5-.66-.57-.83-.64-1.01-.69-1.2-.72-1.38-.67-1.43c1.67-1.77,3.39-3.49,5.17-5.15l1.43.68,1.37.72,1.2.69,1.01.65.82.57.66.5.68.57.16.18.42.62.42.57.42.52.41.47.39.42.39.37.36.31.35.28.33.22.3.18.29.14.27.08.24.06h.21l.18-.03.15-.07.06-.06,1.16-1,1.78-1.47,1.82-1.43,1.22-.93.06-.05.1-.13.07-.18.04-.2v-.24s-.03-.28-.03-.28l-.07-.31-.11-.34-.15-.37-.19-.4-.23-.42-.29-.45-.32-.47-.37-.5-.42-.52-.46-.53-.52-.55-.14-.18-.42-.79-.35-.75-.39-.92-.42-1.13-.42-1.32-.42-1.49-.36-1.54c2-1.39,4.05-2.72,6.13-3.96l1.26.96,1.19.99,1.03.93.86.84.68.73.54.63.55.7.12.19.29.7.3.65.3.59.3.55.3.49.3.43.29.4.29.33.28.3.27.24.25.19.24.14.22.1.2.05h.18l.17-.04.07-.04,1.35-.74,2.04-1.06,2.08-1.03,1.39-.65.07-.04.13-.11.11-.15.07-.2.06-.23.03-.28v-.32s-.05-.35-.05-.35l-.06-.4-.11-.42-.14-.47-.18-.5-.22-.53-.26-.56-.3-.59-.34-.62-.4-.65-.08-.21-.25-.85-.18-.81-.18-.98-.18-1.18-.15-1.39-.09-1.54-.04-1.59c2.24-.93,4.53-1.8,6.83-2.6l1.03,1.2.96,1.22.81,1.12.67,1,.52.86.4.73.38.79.07.22.14.74.16.69.17.65.18.59.18.55.2.49.2.44.2.39.21.34.21.3.2.24.2.18.2.14.18.09.18.05h.17s.07-.03.07-.03l1.48-.44,2.22-.62,2.24-.56,1.5-.35.07-.02.15-.08.14-.12.12-.18.1-.22.08-.27.06-.3.04-.36.02-.4-.02-.44-.04-.49-.07-.53-.1-.56-.14-.6-.18-.65-.21-.67-.25-.71-.05-.23-.06-.89v-.82s0-1,0-1l.07-1.2.15-1.38.23-1.53.3-1.55c2.39-.46,4.8-.83,7.21-1.14l.76,1.39.68,1.39.56,1.27.44,1.11.32.95.24.79.21.87.02.23-.02.75v.71s.04.67.04.67l.06.62.07.57.09.52.11.48.12.42.13.38.15.32.16.28.16.23.17.18.17.13.17.08.16.03h.08s1.53-.13,1.53-.13l2.31-.15,2.3-.08,1.54-.04h.08l.16-.05.16-.09.16-.15.14-.19.14-.24.13-.3.11-.34.09-.39.07-.43.06-.48.04-.54.02-.57v-.62s-.05-.67-.05-.67l-.06-.7-.1-.75v-.23s.13-.89.13-.89l.16-.8.23-.98.32-1.15.42-1.31.55-1.46.62-1.46c2.43.06,4.86.18,7.29.4l.45,1.52.38,1.5.29,1.36.19,1.18.13.99.06.83.03.89-.02.23-.18.73-.14.69-.11.66-.07.62-.05.57-.02.53v.49s.04.44.04.44l.06.4.07.35.09.3.1.25.13.21.14.16.14.12.16.06.08.02,1.52.19,2.28.34,2.28.39,1.51.3h.08s.17,0,.17,0l.18-.06.18-.11.18-.16.18-.21.18-.26.18-.31.18-.36.17-.41.16-.46.15-.51.14-.55.11-.61.11-.66.08-.71.06-.75.06-.22.3-.84.32-.76.42-.91.55-1.06.69-1.2.83-1.3.91-1.3c2.37.55,4.72,1.19,7.05,1.9l.13,1.58.06,1.54v1.39s-.06,1.19-.06,1.19l-.09,1-.1.82-.16.87-.07.22-.32.68-.28.65-.25.62-.2.59-.17.55-.13.52-.09.48-.06.43-.04.4v.36l.03.32.06.27.07.23.1.18.12.14.14.09.07.04,1.45.51,2.16.8,2.15.86,1.41.59.07.04.17.02.18-.02.19-.07.21-.12.22-.17.24-.21.24-.27.24-.31.25-.37.25-.42.25-.47.25-.52.24-.57.24-.62.23-.67.21-.72.1-.2.47-.76.47-.67.61-.8.76-.91.93-1.03,1.08-1.11,1.16-1.08c2.2,1.03,4.36,2.15,6.49,3.33l-.2,1.57-.26,1.53-.3,1.35-.3,1.16-.29.96-.28.78-.33.82-.11.2-.46.6-.42.57-.36.55-.32.54-.28.5-.23.48-.19.44-.15.42-.11.39-.08.35-.04.31v.28l.03.24.06.2.08.17.12.12.06.04,1.32.8,1.95,1.24,1.91,1.28,1.27.88.06.05.16.06.18.02.21-.03.23-.07.25-.11.28-.17.29-.21.3-.26.32-.3.33-.36.34-.4.35-.46.35-.51.36-.55.37-.61.36-.67.14-.18.62-.64.6-.56.76-.66.94-.74,1.12-.81,1.29-.86,1.36-.82c1.94,1.48,3.82,3.01,5.66,4.61l-.53,1.5-.57,1.43-.56,1.27-.54,1.07-.49.88-.42.71-.5.73-.16.18-.57.49-.53.48-.47.46-.42.45-.37.44-.33.42-.28.4-.23.37-.19.36-.15.32-.1.3-.06.28-.02.24v.21s.06.18.06.18l.09.14.06.06,1.12,1.06,1.64,1.62.42.42-26.12,26.12c-11.44-11.75-27.58-18.91-45.4-18.45-32.56.85-59.01,27.63-59.48,60.21-.49,34.16,27.06,62.01,61.11,62.01,30.95,0,56.52-22.99,60.55-52.82h37.15l-.07.86v.08s.02.17.02.17l.08.17.13.17.18.17.23.16.28.16.32.15.38.14.42.12.47.11.53.09.56.07.62.06.67.04h.71s.76,0,.76,0l.22.03.87.21.79.24.95.33,1.11.44,1.27.56,1.39.69,1.39.76Z"/>
      </g>
    </g>
  </g>
</svg>